<svg viewBox="0 0 16 12" xmlns="http://www.w3.org/2000/svg"><path d="m5.5 3.53.36 1 .23.67h1.73l-.77.54-.62.43.25.72.35 1-1-.67-.57-.4-.57.4-.89.69.35-1 .25-.72-.6-.43-.77-.54h1.68l.23-.67.36-1m0-3-1.3 3.67h-4.2l3.37 2.36-1.37 3.92 3.5-2.44 3.5 2.44-1.37-3.92 3.37-2.36h-4.2l-1.3-3.72z" fill="#bac9f5"/><path d="m14 1a1 1 0 0 1 1 1v8a1 1 0 0 1 -1 1h-12a1 1 0 0 1 -1-1v-8a1 1 0 0 1 1-1zm0-1h-12a2 2 0 0 0 -2 2v8a2 2 0 0 0 2 2h12a2 2 0 0 0 2-2v-8a2 2 0 0 0 -2-2z" fill="#bac9f5"/><g fill="none" stroke="#bac9f5" stroke-miterlimit="10"><path d="m9.97 6.5h5"/><path d="m12.47 4v5"/></g></svg>