<svg viewBox="0 0 1001.51 929" xmlns="http://www.w3.org/2000/svg">
<metadata>
Font Awesome Free 5.0.13 by @fontawesome - https://fontawesome.com
License - https://fontawesome.com/license (Icons: CC BY 4.0, Fonts: SIL OFL 1.1, Code: MIT License)
</metadata>
<path d="m566.76 780q-5 6-12 6h-108a20.7 20.7 0 0 1 -12-6q-5-5-5-13v-106q0-8 5-13a16.37 16.37 0 0 1 12-5h108a16.4 16.4 0 0 1 12 5q5 5 5 13v106a19.92 19.92 0 0 1 -5 13zm-1-212a30.94 30.94 0 0 1 -14 3h-103a18.06 18.06 0 0 1 -13-3q-6-4-6-9l-9-255q0-8 5-12 8-6 14-6h122q7 0 14 6a12.33 12.33 0 0 1 5 10l-10 257q.99 6-5 9zm-29-558a69.8 69.8 0 0 0 -72 0 67.48 67.48 0 0 0 -26 27l-429 786q-20 35 1 70a69.45 69.45 0 0 0 26 26q17 10 35 10h858a84.21 84.21 0 0 0 35-10 61.2 61.2 0 0 0 26-26q21-35 1-70l-428-786a75 75 0 0 0 -27-27z"/></svg>
