<svg viewBox="0 0 714 845" xmlns="http://www.w3.org/2000/svg">
<metadata>
Font Awesome Free 5.0.13 by @fontawesome - https://fontawesome.com
License - https://fontawesome.com/license (Icons: CC BY 4.0, Fonts: SIL OFL 1.1, Code: MIT License)
</metadata>
<path d="m65 0a64.42 64.42 0 0 0 -25 5 61.49 61.49 0 0 0 -29 23 60.52 60.52 0 0 0 -11 35v719a60.52 60.52 0 0 0 11 35 61.49 61.49 0 0 0 29 23 64.42 64.42 0 0 0 25 5q26 0 46-19l246-236 246 236a68 68 0 0 0 47 18q14 0 24-4a61.49 61.49 0 0 0 29-23 60.52 60.52 0 0 0 11-35v-719q-1-20-11-35t-29-23a62 62 0 0 0 -24-5z" fill="#666"/></svg>