<svg enable-background="new 0 0 640 640" viewBox="0 0 640 640" xmlns="http://www.w3.org/2000/svg">
<metadata>
Entypo by Daniel Bruce - http://www.entypo.com
License - CC BY-SA 2012
</metadata>
<path d="m399 321 138-158c12-12 18-26.3 18-43s-6-31-18-43c-12-10.7-26.3-16-43-16s-31 5.3-43 16l-132 152-132-152c-12-10.7-26.3-16-43-16s-31 5.3-43 16c-10.7 12-16 26.3-16 43s5.3 31 16 43l138 158-138 156c-10.7 12-16 26.3-16 43s5.3 31 16 43c12 10.7 26.3 16 43 16s31-5.3 43-16l132-152 132 152c12 10.7 26.3 16 43 16s31-5.3 43-16c12-12 18-26.3 18-43s-6-31-18-43z" fill="#666"/></svg>