<svg viewBox="0 0 765.78 900" xmlns="http://www.w3.org/2000/svg"><path d="m726 122q-24-16-39-19t-25-3l-202-12-4-14q-2-16-13-34t-29-26q-30-14-120-14-40 0-40 82 0 20 1 60t1 52q0 72-78 72h-116q-58-4-58 30 0 36 28 151t62 149q20 20 115 35t139 15q24 0 30-58t8-58q2 0 11 17t27 37q18 20 46 28 16 4 47 9t49 8a92.21 92.21 0 0 1 34 13q16 10 18 26 10 132-28 136l-86 4q-44-4-40-42 4-26 24-26 26 0 38-2l4-70-34-2q-34 0-69 19t-37 59q-8 110 18 130 40 26 194 26 54 0 91-51t51-126q14-75 19-171t1-171q-4-75-9-144t-5-73q0-26-24-42zm-87 344q-11-4-28-10t-31-6q-12 0-31 4t-26 5q-7 1-15-5-4-6 0-29t21-46q17-23 45-23t49 26q21 26 29 52t2 32q-4 4-15 0zm-463-458-176 172h144q28 0 28-22 0-12 4-150z" fill="#666"/></svg>