<svg viewBox="0 0 998.3 941.24" xmlns="http://www.w3.org/2000/svg"><path d="m525.18 833.24v108q154-18 270-117t165-225q49-126 35-244-22-170-182-273t-366-77q-206 26-336 164t-108 308q20 154 155 255t319 101zm168-220v-248q0-8-4-28 0-10-8-18-6-10-16-12-12-6-32-6-40 0-62 22-22 18-22 54v236h-90v-248q0-12-4-28a153.57 153.57 0 0 0 -8-20 104.86 104.86 0 0 0 -16-10q-12-6-30-6-20 0-40 10a55.12 55.12 0 0 0 -26 20q-12 16-16 26-4 16-4 20v236h-92v-384h88v30q44-38 110-38 40 0 70 14 26 16 36 32a160.16 160.16 0 0 1 42-30q30-16 74-16a266.51 266.51 0 0 1 56 6q28 8 44 20 22 20 30 38 10 18 10 52v276z" fill="#d1ad59"/></svg>