<svg viewBox="0 0 45 45" xmlns="http://www.w3.org/2000/svg"><path d="m0 0h45v45h-45z" fill="#eee"/><g fill="#868686"><path d="m14.68 19.66v-8l5.5 5.75v-5.29h1.14v8l-5.5-5.74v5.28z"/><path d="m22.82 15.86a3.71 3.71 0 0 1 1.18-2.74 3.87 3.87 0 0 1 2.78-1.12 3.94 3.94 0 0 1 3.92 3.9 3.68 3.68 0 0 1 -1.17 2.76 3.86 3.86 0 0 1 -2.81 1.14 3.92 3.92 0 0 1 -2.63-1 3.71 3.71 0 0 1 -1.27-2.94zm1.14 0a2.73 2.73 0 0 0 .84 2.06 2.79 2.79 0 0 0 3.93 0 2.74 2.74 0 0 0 .82-2 2.77 2.77 0 0 0 -.81-2 2.63 2.63 0 0 0 -2-.82 2.69 2.69 0 0 0 -2 .82 2.72 2.72 0 0 0 -.74 1.95z"/><path d="m4.77 23.12v7.54h-1.13v-7.54z"/><path d="m6.32 30.66 1.59-8.1 2.59 5.86 2.68-5.86 1.42 8.1h-1.16l-.73-4.55-2.23 4.89-2.17-4.9-.81 4.56z"/><path d="m20.63 28.83h-3.23l-.84 1.83h-1.22l3.73-8 3.59 8h-1.24zm-.47-1.07-1.11-2.56-1.18 2.56z"/><path d="m27.14 26.74h3.12v.26a5.29 5.29 0 0 1 -.2 1.5 3.19 3.19 0 0 1 -.66 1.13 3.41 3.41 0 0 1 -2.67 1.18 3.66 3.66 0 0 1 -2.73-1.15 3.94 3.94 0 0 1 0-5.54 4 4 0 0 1 4.44-.78 4.7 4.7 0 0 1 1.44 1.17l-.81.78a2.74 2.74 0 0 0 -2.26-1.24 2.71 2.71 0 0 0 -2 .83 2.74 2.74 0 0 0 -.81 2 2.66 2.66 0 0 0 .9 2.07 2.7 2.7 0 0 0 1.84.76 2.25 2.25 0 0 0 1.5-.57 2 2 0 0 0 .76-1.33h-1.86z"/><path d="m35.85 24.19h-3v1.81h2.94v1.07h-2.97v2.52h3v1.07h-4.13v-7.54h4.16z"/><path d="m41.6 24.25-.92.54a1.58 1.58 0 0 0 -.49-.58 1.09 1.09 0 0 0 -.63-.16 1.17 1.17 0 0 0 -.79.27.83.83 0 0 0 -.31.66c0 .37.27.67.82.89l.75.31a3.19 3.19 0 0 1 1.34.91 2 2 0 0 1 .43 1.31 2.33 2.33 0 0 1 -.69 1.72 2.42 2.42 0 0 1 -1.74.68 2.32 2.32 0 0 1 -1.62-.58 2.65 2.65 0 0 1 -.75-1.64l1.15-.25a2 2 0 0 0 .27.92 1.21 1.21 0 0 0 1 .48 1.17 1.17 0 0 0 .88-.35 1.26 1.26 0 0 0 .35-.91 1.29 1.29 0 0 0 -.06-.4.92.92 0 0 0 -.19-.33 1.56 1.56 0 0 0 -.33-.29 3.18 3.18 0 0 0 -.49-.26l-.73-.3a2.11 2.11 0 0 1 -1.55-1.89 1.83 1.83 0 0 1 .7-1.45 2.36 2.36 0 0 1 1.57-.55 2.23 2.23 0 0 1 2.03 1.25z"/></g></svg>