<svg viewBox="0 0 845 846" xmlns="http://www.w3.org/2000/svg">
<metadata>
Font Awesome Free 5.0.13 by @fontawesome - https://fontawesome.com
License - https://fontawesome.com/license (Icons: CC BY 4.0, Fonts: SIL OFL 1.1, Code: MIT License)
</metadata>
<path d="m229 229q-19 24-50 21t-51-21q-20-18-21-50t21-51a80.12 80.12 0 0 1 51-20q29-1 50 20t21 51q-2 26-21 50zm596 221-399-399q-21-21-57-36t-65-15h-233q-29 1-50 22t-21 50v232q0 29 15 65t36 57l399 399q20 21 50 21 29 0 51-21l274-274q20-21 20-51a70 70 0 0 0 -20-50z" fill="#b3b3b3"/></svg>